<svg width="30" height="30" viewBox="0 0 30 30" fill="none" xmlns="http://www.w3.org/2000/svg">
<path d="M16.1494 8.5C16.2955 8.50008 16.4357 8.55793 16.5391 8.66113L22.8379 14.9609H22.8389C22.89 15.012 22.9303 15.0729 22.958 15.1396C22.9857 15.2065 23.0001 15.2782 23 15.3506C22.9999 15.4229 22.9858 15.4948 22.958 15.5615C22.9302 15.6283 22.8892 15.6892 22.8379 15.7402L22.8359 15.7412L16.5371 22.04C16.4337 22.1435 16.2937 22.2021 16.1475 22.2021C16.0012 22.2021 15.8603 22.1435 15.7568 22.04C15.6537 21.9366 15.5957 21.7965 15.5957 21.6504C15.5957 21.5043 15.6537 21.3641 15.7568 21.2607L20.2637 16.7559L21.1172 15.9023H7.0498C6.90404 15.9023 6.76423 15.8442 6.66113 15.7412C6.55808 15.6382 6.50006 15.4983 6.5 15.3525C6.5 15.2068 6.5581 15.067 6.66113 14.9639C6.76424 14.8608 6.90399 14.8027 7.0498 14.8027H21.1172L20.2637 13.9492L15.7588 9.44141C15.6555 9.33801 15.5977 9.19789 15.5977 9.05176C15.5977 8.90545 15.6553 8.76458 15.7588 8.66113C15.8622 8.55773 16.0032 8.5 16.1494 8.5Z" fill="black" stroke="black"/>
</svg>
