<svg width="18" height="19" viewBox="0 0 18 19" fill="none" xmlns="http://www.w3.org/2000/svg">
<path fill-rule="evenodd" clip-rule="evenodd" d="M17.0144 13.2731V2.62885C17.0144 2.06424 16.7901 1.52276 16.3908 1.12352C15.9916 0.724288 15.4501 0.5 14.8855 0.5H6.37007C5.80546 0.5 5.26398 0.724288 4.86474 1.12352C4.4655 1.52276 4.24121 2.06424 4.24121 2.62885V13.2731C4.24121 13.8377 4.4655 14.3792 4.86474 14.7784C5.26398 15.1776 5.80546 15.4019 6.37007 15.4019H14.8855C15.4501 15.4019 15.9916 15.1776 16.3908 14.7784C16.7901 14.3792 17.0144 13.8377 17.0144 13.2731Z" stroke="#23262D" stroke-linecap="round" stroke-linejoin="round"/>
<path d="M4.03339 3.09186L1.90028 3.86889C1.36989 4.06207 0.937947 4.45799 0.699416 4.96958C0.460885 5.48117 0.435299 6.06655 0.628284 6.597L4.26863 16.5994C4.36428 16.8621 4.51076 17.1035 4.69969 17.3096C4.88862 17.5157 5.11631 17.6826 5.36974 17.8007C5.62318 17.9188 5.89741 17.9859 6.17676 17.998C6.45611 18.0101 6.73511 17.9671 6.99783 17.8714L12.9246 15.5318M7.43425 5.8221H12.7564M7.43425 7.95095H13.8208M7.43425 10.0798H10.6275" stroke="#23262D" stroke-linecap="round" stroke-linejoin="round"/>
</svg>
