<svg width="11" height="13" viewBox="0 0 11 13" fill="none" xmlns="http://www.w3.org/2000/svg">
<path d="M8.80023 0H7.65868V1.90354H8.80023V0ZM10.75 0.665525H9.37101V2.47489H7.0879V0.665525H3.66324V2.47374H1.38128V0.665525H0V12.9686H10.75V0.665525ZM10.1804 12.3978H0.571918V5.36872H10.1798L10.1804 12.3978ZM3.09247 0.000571007H1.95091V1.90354H3.09247V0V0.000571007ZM7.33219 11.0622H8.22717V6.61587H7.49886C7.49848 6.65468 7.48668 6.71423 7.46347 6.79452C7.42542 6.92732 7.36834 7.03387 7.29224 7.11416C7.17719 7.23425 7.02755 7.31546 6.86416 7.34646C6.75457 7.37081 6.56183 7.38927 6.28596 7.40183V7.99658H7.33162V11.0616L7.33219 11.0622ZM4.04737 10.4606C3.76769 10.4602 3.57496 10.3527 3.46918 10.1381C3.4121 10.0225 3.38356 9.87538 3.38356 9.69692H2.52511C2.53919 10.0504 2.61073 10.3366 2.73973 10.5554C2.98478 10.9663 3.42161 11.1718 4.05023 11.1718C4.56088 11.1718 4.94635 11.0291 5.20662 10.7437C5.4669 10.4583 5.59703 10.128 5.59703 9.75286C5.59703 9.39517 5.48554 9.1132 5.26256 8.90696C5.11416 8.76998 4.99962 8.70148 4.91895 8.70148C5.0255 8.66115 5.12766 8.58448 5.22546 8.47146C5.38071 8.29262 5.45833 8.07192 5.45833 7.80936C5.45833 7.44026 5.3282 7.14536 5.06792 6.92466C4.80841 6.7051 4.46594 6.59532 4.04053 6.59532C3.81222 6.5957 3.61948 6.62348 3.46233 6.67865C3.31124 6.72925 3.17242 6.81091 3.05479 6.91838C2.90107 7.06526 2.78881 7.22546 2.71804 7.39897C2.64992 7.60205 2.61147 7.8139 2.60388 8.02797H3.42009C3.41629 7.80879 3.46271 7.63375 3.55936 7.50285C3.65639 7.37234 3.80765 7.30708 4.01313 7.30708C4.19235 7.30708 4.33276 7.36073 4.4298 7.4669C4.52911 7.57306 4.57858 7.711 4.5782 7.88071C4.5782 8.1425 4.48174 8.31621 4.28881 8.40183C4.17694 8.4532 3.97907 8.48078 3.69521 8.48459V9.11016C3.98516 9.11054 4.1973 9.13832 4.33162 9.19349C4.56754 9.29167 4.6855 9.48687 4.6855 9.77911C4.68588 9.99981 4.62234 10.1691 4.49486 10.2871C4.36815 10.402 4.21918 10.4597 4.04795 10.46L4.04737 10.4606Z" fill="#353535"/>
</svg>
