<svg width="18" height="18" viewBox="0 0 18 18" fill="none" xmlns="http://www.w3.org/2000/svg">
<path fill-rule="evenodd" clip-rule="evenodd" d="M0.455 5.09513C0 5.92375 0 6.92562 0 8.92762V10.2594C0 13.6719 -1.04308e-07 15.379 1.0255 16.4395C2.051 17.5 3.70038 17.5 7 17.5H10.5C13.7996 17.5 15.4499 17.5 16.4745 16.4395C17.4991 15.379 17.5 13.6728 17.5 10.2594V8.9285C17.5 6.92563 17.5 5.92462 17.045 5.09513C16.5917 4.26475 15.7614 3.75025 14.1015 2.7195L12.3515 1.63363C10.5971 0.54425 9.7195 0 8.75 0C7.7805 0 6.90375 0.54425 5.1485 1.63363L3.3985 2.7195C1.73862 3.75025 0.909125 4.26475 0.455 5.09513ZM6.51525 11.7232C6.44625 11.6696 6.36722 11.6302 6.2828 11.6075C6.19838 11.5847 6.11026 11.5791 6.02364 11.5909C5.93701 11.6027 5.85361 11.6317 5.77835 11.6762C5.70308 11.7207 5.63746 11.7797 5.58534 11.8499C5.53322 11.9201 5.49565 12 5.47484 12.0849C5.45403 12.1699 5.45039 12.2581 5.46415 12.3444C5.4779 12.4308 5.50877 12.5135 5.55494 12.5877C5.60111 12.662 5.66165 12.7262 5.733 12.7767C6.60422 13.4278 7.66239 13.7801 8.75 13.7812C9.83731 13.7799 10.8951 13.4276 11.7661 12.7767C11.8375 12.7262 11.898 12.662 11.9442 12.5877C11.9904 12.5135 12.0212 12.4308 12.035 12.3444C12.0487 12.2581 12.0451 12.1699 12.0243 12.0849C12.0035 12 11.9659 11.9201 11.9138 11.8499C11.8617 11.7797 11.796 11.7207 11.7208 11.6762C11.6455 11.6317 11.5621 11.6027 11.4755 11.5909C11.3889 11.5791 11.3007 11.5847 11.2163 11.6075C11.1319 11.6302 11.0529 11.6696 10.9839 11.7232C10.3391 12.2061 9.55552 12.4676 8.75 12.4688C7.94448 12.4676 7.16004 12.2061 6.51525 11.7232Z" fill="#23262D"/>
</svg>
