<svg width="9" height="13" viewBox="0 0 9 13" fill="none" xmlns="http://www.w3.org/2000/svg">
<path d="M4.375 5.87957C3.9606 5.87957 3.56317 5.71656 3.27015 5.42639C2.97712 5.13623 2.8125 4.74267 2.8125 4.33232C2.8125 3.92196 2.97712 3.52841 3.27015 3.23824C3.56317 2.94808 3.9606 2.78506 4.375 2.78506C4.7894 2.78506 5.18683 2.94808 5.47985 3.23824C5.77288 3.52841 5.9375 3.92196 5.9375 4.33232C5.9375 4.53551 5.89708 4.7367 5.81856 4.92443C5.74004 5.11215 5.62495 5.28272 5.47985 5.42639C5.33476 5.57007 5.16251 5.68404 4.97294 5.7618C4.78337 5.83955 4.58019 5.87957 4.375 5.87957ZM4.375 0C3.21468 0 2.10188 0.456439 1.28141 1.26891C0.460936 2.08137 0 3.18332 0 4.33232C0 7.58155 4.375 12.378 4.375 12.378C4.375 12.378 8.75 7.58155 8.75 4.33232C8.75 3.18332 8.28906 2.08137 7.46859 1.26891C6.64812 0.456439 5.53532 0 4.375 0Z" fill="#353535"/>
</svg>
