<svg width="18" height="19" viewBox="0 0 18 19" fill="none" xmlns="http://www.w3.org/2000/svg">
<path d="M16.8 4.21772L9.39615 0.166641C9.19833 0.0573353 8.97601 0 8.75 0C8.52399 0 8.30167 0.0573353 8.10385 0.166641L0.7 4.21941C0.48856 4.33509 0.312058 4.50543 0.188926 4.71262C0.0657934 4.91982 0.000547092 5.15627 0 5.39729V13.4439C0.000547092 13.6849 0.0657934 13.9214 0.188926 14.1286C0.312058 14.3358 0.48856 14.5061 0.7 14.6218L8.10385 18.6746C8.30167 18.7839 8.52399 18.8412 8.75 18.8412C8.97601 18.8412 9.19833 18.7839 9.39615 18.6746L16.8 14.6218C17.0114 14.5061 17.1879 14.3358 17.3111 14.1286C17.4342 13.9214 17.4995 13.6849 17.5 13.4439V5.39813C17.4999 5.15668 17.4349 4.9197 17.3117 4.71203C17.1886 4.50435 17.0118 4.33362 16.8 4.21772ZM8.75 1.34453L15.5102 5.04645L13.0047 6.417L6.24447 2.71508L8.75 1.34453ZM8.75 8.74837L1.98978 5.04645L4.84279 3.48407L11.603 7.18599L8.75 8.74837ZM16.1538 13.4473L9.42308 17.1315V9.91195L12.1154 8.43876V11.4407C12.1154 11.6192 12.1863 11.7904 12.3125 11.9166C12.4387 12.0428 12.61 12.1138 12.7885 12.1138C12.967 12.1138 13.1382 12.0428 13.2644 11.9166C13.3906 11.7904 13.4615 11.6192 13.4615 11.4407V7.70174L16.1538 6.22854V13.4439V13.4473Z" fill="#23262D"/>
</svg>
