<svg width="28" height="28" viewBox="0 0 28 28" fill="none" xmlns="http://www.w3.org/2000/svg">
<rect width="28" height="28" rx="14" fill="#353535"/>
<path d="M9.45834 21.75C9.00764 21.75 8.62196 21.5897 8.30128 21.269C7.9806 20.9483 7.81999 20.5624 7.81945 20.1111V9.45833C7.58727 9.45833 7.39279 9.37967 7.236 9.22233C7.07922 9.065 7.00055 8.87052 7 8.63889C6.99946 8.40726 7.07812 8.21278 7.236 8.05544C7.39388 7.89811 7.58836 7.81944 7.81945 7.81944H11.0972C11.0972 7.58727 11.1759 7.39279 11.3332 7.236C11.4906 7.07921 11.685 7.00055 11.9167 7H15.1944C15.4266 7 15.6214 7.07867 15.7787 7.236C15.936 7.39333 16.0144 7.58781 16.0139 7.81944H19.2917C19.5238 7.81944 19.7186 7.89811 19.8759 8.05544C20.0333 8.21278 20.1117 8.40726 20.1111 8.63889C20.1106 8.87052 20.0319 9.06527 19.8751 9.22315C19.7183 9.38103 19.5238 9.45943 19.2917 9.45833V20.1111C19.2917 20.5618 19.1313 20.9478 18.8107 21.269C18.49 21.5902 18.104 21.7505 17.6528 21.75H9.45834ZM17.6528 9.45833H9.45834V20.1111H17.6528V9.45833ZM11.9167 18.4722C12.1488 18.4722 12.3436 18.3936 12.5009 18.2362C12.6583 18.0789 12.7367 17.8844 12.7361 17.6528V11.9167C12.7361 11.6845 12.6574 11.49 12.5001 11.3332C12.3428 11.1764 12.1483 11.0978 11.9167 11.0972C11.685 11.0967 11.4906 11.1753 11.3332 11.3332C11.1759 11.4911 11.0972 11.6856 11.0972 11.9167V17.6528C11.0972 17.885 11.1759 18.0797 11.3332 18.237C11.4906 18.3944 11.685 18.4728 11.9167 18.4722ZM15.1944 18.4722C15.4266 18.4722 15.6214 18.3936 15.7787 18.2362C15.936 18.0789 16.0144 17.8844 16.0139 17.6528V11.9167C16.0139 11.6845 15.9352 11.49 15.7779 11.3332C15.6206 11.1764 15.4261 11.0978 15.1944 11.0972C14.9628 11.0967 14.7683 11.1753 14.611 11.3332C14.4537 11.4911 14.375 11.6856 14.375 11.9167V17.6528C14.375 17.885 14.4537 18.0797 14.611 18.237C14.7683 18.3944 14.9628 18.4728 15.1944 18.4722Z" fill="#FF897B"/>
</svg>
