<svg width="24" height="18" viewBox="0 0 24 18" fill="none" xmlns="http://www.w3.org/2000/svg">
<path d="M14.181 9.05172C13.2859 9.05172 12.4109 8.78629 11.6666 8.28898C10.9223 7.79167 10.3422 7.08483 9.99968 6.25783C9.65713 5.43084 9.5675 4.52084 9.74213 3.64291C9.91677 2.76498 10.3478 1.95855 10.9808 1.3256C11.6137 0.692643 12.4202 0.261597 13.2981 0.0869652C14.176 -0.0876662 15.086 0.00196099 15.913 0.344513C16.74 0.687064 17.4468 1.26716 17.9441 2.01143C18.4415 2.7557 18.7069 3.63073 18.7069 4.52586C18.7069 5.7262 18.2301 6.87737 17.3813 7.72613C16.5325 8.57489 15.3814 9.05172 14.181 9.05172ZM14.181 1.81035C13.644 1.81035 13.1189 1.96961 12.6724 2.26799C12.2258 2.56638 11.8778 2.99048 11.6722 3.48668C11.4667 3.98288 11.4129 4.52888 11.5177 5.05563C11.6225 5.58239 11.8811 6.06625 12.2609 6.44602C12.6406 6.8258 13.1245 7.08442 13.6513 7.1892C14.178 7.29398 14.724 7.2402 15.2202 7.03467C15.7164 6.82914 16.1405 6.48109 16.4389 6.03452C16.7373 5.58796 16.8965 5.06294 16.8965 4.52586C16.8965 3.80566 16.6105 3.11496 16.1012 2.6057C15.5919 2.09644 14.9012 1.81035 14.181 1.81035ZM22.6293 17.5C22.3902 17.4969 22.1618 17.4005 21.9927 17.2314C21.8236 17.0623 21.7273 16.8339 21.7241 16.5948C21.7241 14.2414 20.4448 12.6724 14.181 12.6724C7.91724 12.6724 6.63793 14.2414 6.63793 16.5948C6.63793 16.8349 6.54256 17.0651 6.37281 17.2349C6.20306 17.4046 5.97282 17.5 5.73276 17.5C5.49269 17.5 5.26246 17.4046 5.0927 17.2349C4.92295 17.0651 4.82759 16.8349 4.82759 16.5948C4.82759 10.8621 11.381 10.8621 14.181 10.8621C16.981 10.8621 23.5345 10.8621 23.5345 16.5948C23.5314 16.8339 23.435 17.0623 23.2659 17.2314C23.0968 17.4005 22.8684 17.4969 22.6293 17.5ZM7.32586 10.0293H6.93965C5.97939 9.93649 5.09533 9.466 4.48195 8.72135C3.86858 7.9767 3.57614 7.01889 3.66897 6.05862C3.76179 5.09836 4.23228 4.21429 4.97693 3.60092C5.72158 2.98755 6.67939 2.69511 7.63965 2.78793C7.76278 2.79322 7.88353 2.8236 7.9945 2.87721C8.10548 2.93081 8.20433 3.00652 8.28501 3.09967C8.3657 3.19283 8.42651 3.30149 8.46372 3.41898C8.50093 3.53647 8.51375 3.66032 8.50141 3.78294C8.48906 3.90556 8.45181 4.02437 8.39193 4.13208C8.33205 4.2398 8.2508 4.33415 8.15317 4.40936C8.05553 4.48456 7.94357 4.53904 7.82414 4.56945C7.70471 4.59986 7.58033 4.60556 7.45862 4.58621C7.22302 4.56272 6.98511 4.58695 6.75908 4.65745C6.53306 4.72795 6.32356 4.84328 6.1431 4.99655C5.95981 5.1444 5.80778 5.32726 5.69589 5.53447C5.584 5.74168 5.51448 5.96909 5.49138 6.20345C5.46642 6.44074 5.48894 6.68063 5.55762 6.90914C5.6263 7.13764 5.73976 7.3502 5.8914 7.53442C6.04305 7.71863 6.22983 7.87083 6.44088 7.98214C6.65193 8.09345 6.88302 8.16165 7.12069 8.18276C7.51358 8.21637 7.90691 8.12332 8.2431 7.91724C8.44796 7.79081 8.69465 7.75093 8.92891 7.80638C9.16317 7.86183 9.3658 8.00808 9.49224 8.21293C9.61868 8.41779 9.65855 8.66448 9.6031 8.89874C9.54765 9.133 9.40141 9.33564 9.19655 9.46207C8.63679 9.81909 7.98964 10.0153 7.32586 10.0293ZM0.905172 16.5948C0.666078 16.5917 0.437655 16.4953 0.268575 16.3263C0.0994955 16.1572 0.00312582 15.9288 0 15.6897C0 12.431 0.868965 10.2586 5.12931 10.2586C5.36938 10.2586 5.59961 10.354 5.76936 10.5237C5.93912 10.6935 6.03448 10.9237 6.03448 11.1638C6.03448 11.4039 5.93912 11.6341 5.76936 11.8038C5.59961 11.9736 5.36938 12.069 5.12931 12.069C2.2931 12.069 1.81034 12.9741 1.81034 15.6897C1.80722 15.9288 1.71085 16.1572 1.54177 16.3263C1.37269 16.4953 1.14427 16.5917 0.905172 16.5948Z" fill="#23262D"/>
</svg>
